<svg xmlns="http://www.w3.org/2000/svg" viewBox="0 0 199.938 199.935">
  <defs>
    <style>
      .cls-1 {
        fill: #70c1b3;
      }

      .cls-2 {
        fill: #b5885b;
      }

      .cls-3 {
        fill: #fff;
      }

      .cls-4 {
        fill: #e7eced;
      }

      .cls-5 {
        fill: #c7cac7;
      }

      .cls-6 {
        fill: #f7b563;
      }

      .cls-7 {
        fill: #edeada;
      }

      .cls-8 {
        fill: #cec9ae;
      }

      .cls-9 {
        fill: #c1bca4;
      }

      .cls-10 {
        fill: #78809e;
      }
    </style>
  </defs>
  <g id="Group_40" data-name="Group 40" transform="translate(-5646 212)">
    <path id="Path_24" data-name="Path 24" class="cls-1" d="M200,100a99.956,99.956,0,1,1-5.669-33.228,97.592,97.592,0,0,1,5.354,26.3A51.03,51.03,0,0,1,200,100Z" transform="translate(5645.924 -211.982)"/>
    <g id="folder1" transform="translate(5686 -187.955)">
      <g id="Group_35" data-name="Group 35" transform="translate(5.457 1.955)">
        <path id="Path_84" data-name="Path 84" class="cls-2" d="M72.207,30.6V9.825a1.048,1.048,0,0,0-1.048-1.048H29.148a1.043,1.043,0,0,1-.9-.509l-3.483-5.8a1.049,1.049,0,0,0-.9-.509H5.048A1.05,1.05,0,0,0,4,3V30.6H72.207Z" transform="translate(-4 -1.955)"/>
      </g>
      <rect id="Rectangle_24" data-name="Rectangle 24" class="cls-3" width="60.022" height="5.457" transform="translate(9.549 25.147)"/>
      <rect id="Rectangle_25" data-name="Rectangle 25" class="cls-4" width="57.294" height="4.092" transform="translate(10.913 21.054)"/>
      <rect id="Rectangle_26" data-name="Rectangle 26" class="cls-5" width="54.565" height="4.092" transform="translate(12.277 16.962)"/>
      <path id="Path_85" data-name="Path 85" class="cls-6" d="M71.921,67.972H7.079a.37.37,0,0,1-.366-.314L0,23.382a.37.37,0,0,1,.366-.426H78.63a.37.37,0,0,1,.366.426L72.287,67.659A.37.37,0,0,1,71.921,67.972Z" transform="translate(0 7.647)"/>
      <rect id="Rectangle_27" data-name="Rectangle 27" class="cls-7" width="25.919" height="16.37" transform="translate(36.772 49.701)"/>
      <g id="Group_36" data-name="Group 36" transform="translate(40.864 53.793)">
        <path id="Path_86" data-name="Path 86" class="cls-8" d="M31.32,42.684h5.457a1.364,1.364,0,0,0,0-2.728H31.32a1.364,1.364,0,0,0,0,2.728Z" transform="translate(-29.956 -39.956)"/>
        <path id="Path_87" data-name="Path 87" class="cls-8" d="M39.32,42.684h1.364a1.364,1.364,0,0,0,0-2.728H39.32a1.364,1.364,0,0,0,0,2.728Z" transform="translate(-27.043 -39.956)"/>
        <path id="Path_88" data-name="Path 88" class="cls-8" d="M46.326,43.956H31.32a1.364,1.364,0,0,0,0,2.728H46.326a1.364,1.364,0,1,0,0-2.728Z" transform="translate(-29.956 -38.499)"/>
      </g>
    </g>
    <g id="files" transform="translate(5759 -112)">
      <path id="Path_67" data-name="Path 67" class="cls-7" d="M52,19,38,5H11V58H52Z"/>
      <path id="Path_68" data-name="Path 68" class="cls-9" d="M11,5H38l9,9V0H6V53h5Z"/>
      <g id="Group_25" data-name="Group 25">
        <path id="Path_69" data-name="Path 69" class="cls-8" d="M19,26H44a1,1,0,0,0,0-2H19a1,1,0,0,0,0,2Z"/>
        <path id="Path_70" data-name="Path 70" class="cls-8" d="M19,18H29a1,1,0,0,0,0-2H19a1,1,0,0,0,0,2Z"/>
        <path id="Path_71" data-name="Path 71" class="cls-8" d="M44,32H19a1,1,0,0,0,0,2H44a1,1,0,0,0,0-2Z"/>
        <path id="Path_72" data-name="Path 72" class="cls-8" d="M44,40H19a1,1,0,0,0,0,2H44a1,1,0,0,0,0-2Z"/>
        <path id="Path_73" data-name="Path 73" class="cls-8" d="M44,48H19a1,1,0,0,0,0,2H44a1,1,0,0,0,0-2Z"/>
      </g>
      <path id="Path_74" data-name="Path 74" class="cls-8" d="M38,5V19H52Z"/>
    </g>
    <g id="Group_39" data-name="Group 39">
      <rect id="Rectangle_17" data-name="Rectangle 17" class="cls-10" width="6" height="40" transform="translate(5720 -113)"/>
      <rect id="Rectangle_28" data-name="Rectangle 28" class="cls-10" width="6" height="45" transform="translate(5765 -79) rotate(90)"/>
    </g>
  </g>
</svg>
