<?xml version="1.0" encoding="iso-8859-1"?>
<!-- Generator: Adobe Illustrator 19.0.0, SVG Export Plug-In . SVG Version: 6.00 Build 0)  -->
<svg version="1.1" id="Layer_1" xmlns="http://www.w3.org/2000/svg" xmlns:xlink="http://www.w3.org/1999/xlink" x="0px" y="0px"
	 viewBox="0 0 512 512" style="enable-background:new 0 0 512 512;" xml:space="preserve">
<rect x="10" y="126.518" style="fill:#43BECC;" width="491.998" height="330.872"/>
<g>
	<rect x="98.218" y="163.237" style="fill:#A0DBE8;" width="315.563" height="64.998"/>
	<rect x="98.218" y="259.834" style="fill:#A0DBE8;" width="315.563" height="64.998"/>
</g>
<path d="M413.781,334.842H98.219c-5.523,0-10-4.478-10-10v-65.003c0-5.522,4.477-10,10-10H413.78c5.523,0,10,4.478,10,10v65.003
	C423.781,330.364,419.304,334.842,413.781,334.842z M108.218,314.842h295.562v-45.004H108.218V314.842z"/>
<rect x="187.096" y="357.922" style="fill:#FF754F;" width="137.807" height="62.049"/>
<path d="M324.901,429.965H187.099c-5.523,0-10-4.478-10-10v-62.049c0-5.522,4.477-10,10-10h137.804c5.523,0,10,4.478,10,10v62.049
	C334.901,425.487,330.424,429.965,324.901,429.965z M197.098,409.966h117.804v-42.049H197.098V409.966z"/>
<rect x="10" y="54.61" style="fill:#1B536D;" width="491.998" height="71.906"/>
<path d="M451.864,100.808c-2.63,0-5.2-1.061-7.07-2.931c-1.86-1.859-2.93-4.439-2.93-7.069c0-0.65,0.07-1.311,0.2-1.95
	c0.13-0.64,0.32-1.271,0.57-1.87c0.25-0.61,0.56-1.19,0.921-1.729c0.36-0.551,0.78-1.061,1.24-1.521c0.46-0.46,0.98-0.88,1.52-1.24
	c0.55-0.359,1.13-0.67,1.73-0.92c0.6-0.25,1.23-0.439,1.87-0.569c1.29-0.261,2.62-0.261,3.91,0c0.64,0.13,1.27,0.319,1.87,0.569
	c0.6,0.25,1.18,0.561,1.73,0.92c0.54,0.36,1.06,0.78,1.52,1.24c0.46,0.46,0.88,0.97,1.24,1.521c0.36,0.539,0.67,1.119,0.92,1.729
	c0.25,0.6,0.44,1.23,0.57,1.87s0.19,1.3,0.19,1.95c0,0.649-0.059,1.31-0.19,1.96c-0.13,0.63-0.32,1.26-0.57,1.87
	c-0.25,0.6-0.56,1.18-0.92,1.72c-0.36,0.55-0.78,1.06-1.24,1.52c-0.46,0.46-0.98,0.881-1.52,1.25c-0.55,0.36-1.13,0.67-1.73,0.92
	c-0.6,0.25-1.23,0.44-1.87,0.57C453.175,100.747,452.525,100.808,451.864,100.808z"/>
<path d="M137.223,205.745c-0.65,0-1.31-0.069-1.95-0.2c-0.64-0.13-1.27-0.319-1.87-0.569c-0.61-0.25-1.19-0.561-1.73-0.92
	c-0.55-0.37-1.06-0.79-1.52-1.25c-0.46-0.46-0.88-0.971-1.24-1.521c-0.36-0.54-0.67-1.12-0.92-1.72c-0.25-0.61-0.45-1.23-0.57-1.87
	c-0.13-0.65-0.2-1.3-0.2-1.96c0-0.65,0.07-1.309,0.2-1.95c0.12-0.64,0.32-1.27,0.57-1.87c0.25-0.609,0.56-1.189,0.92-1.729
	c0.36-0.55,0.78-1.061,1.24-1.521c0.46-0.46,0.97-0.88,1.52-1.239c0.54-0.36,1.12-0.67,1.73-0.92c0.6-0.25,1.23-0.44,1.87-0.57
	c3.25-0.66,6.7,0.41,9.02,2.729c0.46,0.46,0.88,0.971,1.24,1.521c0.36,0.54,0.67,1.12,0.92,1.729c0.25,0.601,0.45,1.23,0.57,1.87
	c0.13,0.641,0.2,1.3,0.2,1.95c0,0.66-0.07,1.31-0.2,1.96c-0.12,0.64-0.32,1.26-0.57,1.87c-0.25,0.6-0.56,1.18-0.92,1.72
	c-0.36,0.55-0.78,1.061-1.24,1.521C142.433,204.676,139.852,205.745,137.223,205.745z"/>
<path d="M98.219,238.24H413.78c5.523,0,10-4.478,10-10v-65.002c0-5.522-4.477-10-10-10H98.219c-5.523,0-10,4.478-10,10v65.002
	C88.219,233.763,92.696,238.24,98.219,238.24z M108.218,173.237h295.562v12.502H177.579c-5.523,0-10,4.478-10,10
	c0,5.523,4.477,10,10,10H403.78v12.502H108.218V173.237z"/>
<path d="M502,44.61H10c-5.523,0-10,4.478-10,10v71.905V457.39c0,5.522,4.477,10,10,10h492c5.523,0,10-4.478,10-10V126.517V54.61
	C512,49.088,507.523,44.61,502,44.61z M492,64.61v51.906H20V100.81h391.513c5.523,0,10-4.478,10-10s-4.477-10-10-10H20V64.61H492z
	 M492,447.39H20V136.516H492V447.39z"/>
<g>
</g>
<g>
</g>
<g>
</g>
<g>
</g>
<g>
</g>
<g>
</g>
<g>
</g>
<g>
</g>
<g>
</g>
<g>
</g>
<g>
</g>
<g>
</g>
<g>
</g>
<g>
</g>
<g>
</g>
</svg>
